<?xml version="1.0" encoding="utf-8"?>
<!-- Generator: Adobe Illustrator 23.0.1, SVG Export Plug-In . SVG Version: 6.00 Build 0)  -->
<svg version="1.1" id="Layer_1" xmlns="http://www.w3.org/2000/svg" xmlns:xlink="http://www.w3.org/1999/xlink" x="0px" y="0px"
	 viewBox="0 0 512 512" style="enable-background:new 0 0 512 512;" xml:space="preserve">
<style type="text/css">
	.st0{fill:#FFFFFF;stroke:#000000;stroke-width:16;stroke-miterlimit:10;}
	.st1{fill:none;stroke:#000000;stroke-width:16;stroke-miterlimit:10;}
	.st2{fill:none;stroke:#000000;stroke-width:8;stroke-miterlimit:10;}
</style>
<path class="st0" d="M138.5,166.35V415.5h195.86c0,0,4-39.97-23.98-39.97c-27.98,0-138.57,0-138.57,0V189
	C171.81,189,171.81,158.35,138.5,166.35z"/>
<path class="st1" d="M138.5,165.02l110.59-78.61c0,0,23.98-5.33,22.65,22.65s0,149.23,0,149.23s-2.08,4.16,1.89,7.29
	c2.38,1.87,6.94,3.37,15.43,3.37c22.65,0,77.28,0,77.28,0s18.65-2.66,17.32,18.65c-1.33,21.32-49.3,127.91-49.3,127.91"/>
<line class="st2" x1="191.79" y1="351.55" x2="273.07" y2="264.94"/>
</svg>
